<svg xmlns="http://www.w3.org/2000/svg" width="14" height="13.333" viewBox="0 0 14 13.333">
  <path id="Icon_simple-line" data-name="Icon simple-line" d="M11.3,6.278a.368.368,0,0,1,0,.736H10.273V7.67H11.3a.367.367,0,1,1,0,.734H9.9a.368.368,0,0,1-.366-.367V5.254a.369.369,0,0,1,.368-.367H11.3a.368.368,0,0,1,0,.735H10.273v.656H11.3ZM9.048,8.037a.367.367,0,0,1-.252.348.377.377,0,0,1-.116.018.361.361,0,0,1-.3-.146L6.957,6.322V8.037a.367.367,0,1,1-.733,0V5.254a.366.366,0,0,1,.251-.347.339.339,0,0,1,.113-.019.377.377,0,0,1,.289.148L8.313,6.978V5.254a.367.367,0,1,1,.735,0V8.037Zm-3.349,0a.367.367,0,1,1-.734,0V5.254a.367.367,0,1,1,.734,0ZM4.26,8.4H2.868A.37.37,0,0,1,2.5,8.037V5.254a.368.368,0,0,1,.735,0V7.67H4.26a.367.367,0,0,1,0,.734M14,6.541C14,3.408,10.859.858,7,.858S0,3.408,0,6.541c0,2.806,2.491,5.158,5.854,5.6.228.048.538.151.617.344a1.425,1.425,0,0,1,.022.63l-.1.595c-.026.176-.14.692.612.376a22.566,22.566,0,0,0,5.5-4.069A5.03,5.03,0,0,0,14,6.541" transform="translate(0 -0.858)" fill="#fff"/>
</svg>
